<?xml version="1.0" encoding="UTF-8"?>
<svg id="Layer_1" xmlns="http://www.w3.org/2000/svg" xmlns:xlink="http://www.w3.org/1999/xlink" version="1.1" viewBox="0 0 231.1 140">
  <!-- Generator: Adobe Illustrator 29.3.0, SVG Export Plug-In . SVG Version: 2.1.0 Build 146)  -->
  <defs>
    <style>
      .st0 {
        fill: #1a586b;
      }

      .st0, .st1, .st2, .st3, .st4 {
        fill-rule: evenodd;
      }

      .st1 {
        fill: #93b84a;
      }

      .st2 {
        fill: #195e6b;
      }

      .st3 {
        fill: #ecf1f2;
      }

      .st4 {
        fill: #eec21b;
      }

      .st5 {
        fill: #272827;
      }
    </style>
  </defs>
  <g>
    <path class="st5" d="M121.1,122.7c0-1-.2-2.1-.3-3.3s0-2.3,0-3.3c0-1.7,0-3.2.2-4.7s.2-3.1.4-4.8.3-3.5.5-5.4.4-4.2.5-6.8c.3,0,.8,0,1.4.3.6.2,1.2.4,1.8.6s1.2.5,1.6.8.7.5.8.6c-.4,1-.8,2.2-1.1,3.8-.3,1.6-.6,3.3-.8,5.1-.2,1.8-.4,3.7-.5,5.7s-.2,3.8-.2,5.5v2.3c0,.8,0,1.5,0,2.1.5-.8,1.1-1.9,1.8-3.3.7-1.4,1.4-3,2.1-4.8.7-1.7,1.5-3.6,2.2-5.5s1.4-3.7,2-5.5,1.1-3.3,1.6-4.7c.4-1.4.7-2.4.9-3.2.3,0,.8,0,1.4.3.6.2,1.2.4,1.8.6s1.1.5,1.6.8.7.5.8.6c-.4,1-.8,2.2-1.1,3.8s-.6,3.3-.8,5.1c-.2,1.8-.4,3.7-.5,5.7s-.2,3.8-.2,5.5v2.1c0,.7,0,1.3.1,1.9.8-2,1.6-4.1,2.5-6.1.8-2,1.7-3.9,2.5-5.8.8-1.8,1.7-3.5,2.4-5.1.8-1.6,1.5-3,2.2-4.3.7-1.2,1.2-2.3,1.7-3.1s.9-1.4,1.1-1.6c.6,0,1.2.3,1.8.6.6.3,1.1.8,1.6,1.3-.7.6-1.5,1.5-2.4,2.8s-1.8,2.8-2.8,4.5-1.9,3.5-2.9,5.4-1.9,3.8-2.7,5.6c-.8,1.8-1.6,3.5-2.2,5.1-.7,1.6-1.2,2.8-1.5,3.8-.6.3-1.3.4-1.9.4-.8,0-1.5-.3-2.2-.6-.7-.3-1.2-.7-1.5-1.1-.1-.4-.1-.9-.2-1.4,0-.5-.1-1.1-.1-1.6s0-1-.1-1.5v-1.2c0-2.2.1-4.4.3-6.7.2-2.3.4-4.7.6-7.3-.6,1.7-1.2,3.5-1.9,5.4s-1.4,3.8-2.2,5.7c-.8,1.9-1.5,3.7-2.3,5.4-.8,1.7-1.5,3.2-2.3,4.5-.6.3-1.3.4-1.9.4-.8,0-1.5-.3-2.2-.6s-1.1-.4-1.4-.8Z"/>
    <path class="st5" d="M151.3,124.3c-1.2-.3-2-.7-2.5-1s-.7-.8-.7-1.3.1-1,.3-1.7.5-1.6,1-2.5c.4-1,.9-2.1,1.6-3.2.6-1.2,1.3-2.5,2.1-3.8h-2.9c.1-.4.6-.7,1.3-1s1.6-.5,2.7-.7c1-1.6,2-3.1,3.1-4.6s2.2-2.8,3.3-4,2.2-2.3,3.3-3.2c1.1-.9,2.2-1.7,3.2-2.2,0-.2,0-.3.1-.4v-.3c.3,0,.8,0,1.4.3.6.2,1.1.4,1.7.6s1,.5,1.5.8c.4.3.7.5.7.6-.8,1.4-1.6,3.6-2.4,6.4-.8,2.8-1.4,6.3-2,10.2-.1,1-.2,2.1-.3,3.4s-.1,2.7-.1,4.2v1.7c0,.6,0,1.2.1,1.8h-.4c-.3,0-.7,0-1.2-.2s-.9-.2-1.3-.4-.8-.3-1.1-.5-.5-.4-.6-.5v-1.9c0-1.5.1-3,.2-4.6.1-1.6.3-3.2.6-4.8-.3-.3-.8-.4-1.4-.4h-6.5c-.6,1.1-1.1,2.2-1.7,3.3-.5,1.1-1,2.2-1.3,3.3-.4,1.2-.8,2.3-1,3.5-.5,1-.7,2.1-.8,3.1ZM165.6,102.1c.1-.3.2-.8.4-1.4.1-.6.3-1.2.4-1.9-.6.2-1.3.6-2.1,1.2s-1.5,1.3-2.3,2.2c-.8.9-1.6,1.9-2.4,3-.8,1.1-1.6,2.3-2.4,3.5,2.1-.2,4.4-.3,7.1-.3.2-1,.4-2.1.6-3.1.2-1.1.4-2.1.7-3.2Z"/>
    <path class="st5" d="M173.5,122.9c-.4,0-.8-.2-1.2-.5s-.7-.6-.8-.9c0-.3,0-.7.1-1.1s.2-.9.3-1.4.2-.9.4-1.4c.1-.4.2-.8.3-1,.3,0,.7,0,1.1.2s.9.4,1.4.6c.5.3.9.6,1.4.9.4.3.8.7,1,1-.2.5-.5,1-.9,1.4-.3.4-.7.8-1.1,1.2-.4.3-.7.6-1.1.8-.3.1-.6.2-.9.2Z"/>
    <path class="st5" d="M173.8,132.5c0-.1,0-.3.1-.4.1-.1.2-.2.3-.4.3.3.5.5.8.6.2.1.4.3.6.4.2.1.4.2.6.2h.7c1.3,0,2.5-.3,3.7-1s2.2-1.7,3.3-2.9,2-2.8,2.8-4.7c.8-1.8,1.6-3.9,2.2-6.3-.3.3-.7.6-1.1,1-.4.4-.9.7-1.3,1-.5.3-.9.6-1.4.9s-.8.5-1.2.6c-.4,0-.8-.3-1.2-.5-.4-.3-.7-.6-.9-1.1-.3-.4-.5-.9-.6-1.4s-.2-1.1-.2-1.7c0-1,.2-1.9.5-3,.4-1,.8-2,1.4-3,.6-1,1.3-1.9,2.1-2.8s1.7-1.6,2.5-2.3c.9-.6,1.8-1.2,2.7-1.5s1.8-.6,2.7-.6,1.5.2,1.9.5c.4.4.7,1,.9,1.8-.3,0-.6-.2-1-.2-.6,0-1.3.2-2.1.7s-1.6,1.1-2.4,1.8c-.8.8-1.6,1.6-2.4,2.6-.8,1-1.5,2-2.1,3s-1.1,2-1.5,3-.6,1.8-.6,2.6v.3h.1c.2,0,.5,0,.9-.3.4-.2.8-.6,1.3-.9s1-.8,1.5-1.3l1.5-1.5c1.1-1.2,2-2.5,2.9-4s1.6-2.9,2.1-4.3c.7,0,1.3.2,1.8.3.5.2.9.4,1.1.6-.8,1.9-1.5,3.5-2,4.8s-.9,2.5-1.3,3.5c-.7,1.8-1.3,3.4-1.9,4.9-.6,1.5-1.2,2.8-1.8,4.1-.6,1.2-1.3,2.4-2,3.5-.7,1.1-1.5,2.1-2.4,3.1-.4.5-.9.9-1.4,1.2s-1.1.7-1.6.9c-.6.2-1.1.4-1.6.6-.5.1-1,.2-1.5.2s-1.2-.1-1.8-.2-1.2-.3-1.7-.6c-.5-.2-1-.5-1.4-.8-.1-.3-.4-.6-.6-1Z"/>
    <path class="st5" d="M202.3,122.8c-1.4,0-2.5-.8-3.4-1.8s-1.3-2.5-1.3-4.1.1-2,.4-3.1c.3-1.1.7-2.1,1.3-3.1s1.2-1.9,1.9-2.8,1.5-1.7,2.4-2.3c1.4-1,2.6-1.5,3.8-1.5.8.4,1.6,1.3,2.3,2.6h.6c1.3,0,2,1.2,2,3.5s-.3,3-.8,4.4-1.2,2.7-2.1,3.8c-.9,1.1-2,2.1-3.2,2.9-1.1.6-2.5,1.2-3.9,1.5ZM204.2,111.2c-.4.6-.8,1.2-1.2,1.8-.4.7-.7,1.3-1,2s-.5,1.3-.6,2c-.1.6-.2,1.2-.2,1.7s.1,1.2.3,1.7.4.9.7.9c1.1-.2,2.1-.7,3-1.4.9-.7,1.7-1.5,2.4-2.5s1.2-2.2,1.6-3.4.6-2.6.6-4.1,0-1.1-.1-1.5-.2-.7-.4-1c-1.1.3-2.1.8-2.9,1.6-.9.6-1.6,1.4-2.2,2.2Z"/>
    <path class="st5" d="M216,108.4c0-.4,0-.9.1-1.3s.2-.7.4-1,.5-.5.8-.7.8-.2,1.4-.2.7,0,1.2,0c.4,0,.7.2.9.4-.1.4-.2.8-.2,1.1-.1.3-.1.7-.1,1.1s-.1.8-.1,1.4,0,1.2-.1,2.1c0,1.7-.1,3.2-.2,4.5-.1,1.3-.4,2.6-.8,3.9q0,0,.1,0c.4-.3.8-.7,1.3-1.2s1-1.1,1.5-1.8c.5-.7,1-1.3,1.6-2.1s1-1.5,1.4-2.2c.6-1,1.2-2.3,2-3.9.7-1.6,1.3-3.2,1.8-5,.1,0,.3,0,.6,0,.2,0,.5,0,.7.2l.6.3c.2,0,.3.2.4.3,0,1.1-.3,2.1-.8,3.3-.5,1.1-1,2.2-1.6,3.2s-1.3,2-2,2.9-1.4,1.7-2,2.4c-1.2,1.4-2.4,2.6-3.6,3.7-1.2,1.1-2.6,2.1-4.3,3.1-.6-.2-1.1-.6-1.5-1s-.6-.8-.6-1.3.1-.6.2-1c.1-.4.3-.9.5-1.5s.3-1.4.5-2.3c.1-.9.2-2.1.2-3.5s0-1.6-.1-2.5c-.2-.6-.2-1.2-.2-1.7Z"/>
  </g>
  <path class="st3" d="M99.9,80.6c-1.3-.9-2.5-1.8-3.7-2.8h5.8c-.7.9-1.4,1.9-2.1,2.8Z"/>
  <path class="st2" d="M70.1,24.9c-5.9,14.6-15.3,26-27.7,34.7l.6,4.7h16.3c-10.5,16.7-23.7,26.8-38.9,31.5l.8,3.4,25.8-.2c-13.4,20.7-29,31.4-46.1,35.1l.8,3.8,53.8-3.4h-.3l-3,.2v-.2H14.3c15.5-9.7,28.7-21,36.4-36.3l-1.5-2.9h-16.2c15.2-8.1,24.8-19.7,31.6-33.1l-2-2.9h-14c12.2-9.5,18.8-21.2,21.5-34.4Z"/>
  <path class="st1" d="M70.1,24.9c5.9,14.6,15.3,26,27.7,34.7l-.6,4.7h-16.4c2.5,3.9,5,7.4,7.8,10.6-1.2.7-2.5,1.4-3.7,2-3.6-4.5-6.7-9.4-9.3-14.6l2-2.9h14c-12.1-9.6-18.7-21.3-21.5-34.5Z"/>
  <path class="st0" d="M132.6,0c-6.9,17-17.8,30.3-32.3,40.4l.7,5.4h19.1c-12.4,19.6-27.8,31.4-45.6,36.9l1,3.9,30.1-.3c-15.6,24.2-33.8,36.7-53.7,41l.9,4.5,62.7-3.9h-48c18-11.3,33.5-24.5,42.4-42.3l-1.8-3.4h-18.8c17.7-9.5,29-23,36.9-38.7l-2.3-3.4h-16.3c14.1-11.1,21.8-24.7,25-40.1Z"/>
  <path class="st1" d="M132.6,0c6.9,17,17.8,30.3,32.3,40.4l-.7,5.4h-19.1c12.4,19.6,25.9,31.4,43.7,36.9l-1,3-44.1-2.6,32.2-1c-17.7-9.5-29-23-36.9-38.7l2.3-3.4h16.3c-14.1-11-21.8-24.6-25-40Z"/>
  <path class="st4" d="M140.7,20.8c7-11,22.7-17.2,37.4-10,13.5,6.6,19.8,23.2,14,37.1-2.9,7.1-7.9,12.4-14.9,15.6-5,2.3-10.2,3.1-15.7,2.4,7.8,0,14.7-2.7,20.2-8.3,4.1-4.1,6.5-9,7.4-14.7,1.8-11.5-4.1-23.1-14.6-28.6-10.9-5.7-24.9-3.7-33.8,6.5Z"/>
</svg>